<?xml version="1.0" encoding="utf-8" standalone="no"?>
<!DOCTYPE svg PUBLIC "-//W3C//DTD SVG 1.1//EN"
  "http://www.w3.org/Graphics/SVG/1.1/DTD/svg11.dtd">
<svg xmlns:xlink="http://www.w3.org/1999/xlink" width="1535.476202pt" height="816.301094pt" viewBox="0 0 1535.476202 816.301094" xmlns="http://www.w3.org/2000/svg" version="1.1">
 <metadata>
  <rdf:RDF xmlns:dc="http://purl.org/dc/elements/1.1/" xmlns:cc="http://creativecommons.org/ns#" xmlns:rdf="http://www.w3.org/1999/02/22-rdf-syntax-ns#">
   <cc:Work>
    <dc:type rdf:resource="http://purl.org/dc/dcmitype/StillImage"/>
    <dc:date>2025-10-08T15:47:52.394038</dc:date>
    <dc:format>image/svg+xml</dc:format>
    <dc:creator>
     <cc:Agent>
      <dc:title>Matplotlib v3.7.5, https://matplotlib.org/</dc:title>
     </cc:Agent>
    </dc:creator>
   </cc:Work>
  </rdf:RDF>
 </metadata>
 <defs>
  <style type="text/css">*{stroke-linejoin: round; stroke-linecap: butt}</style>
 </defs>
 <g id="figure_1">
  <g id="patch_1">
   <path d="M 0 816.301094 
L 1535.476202 816.301094 
L 1535.476202 0 
L 0 0 
z
" style="fill: #ffffff"/>
  </g>
  <g id="axes_1">
   <g id="patch_2">
    <path d="M 146.153125 690.374531 
L 1528.276202 690.374531 
L 1528.276202 25.094531 
L 146.153125 25.094531 
z
" style="fill: #ffffff"/>
   </g>
   <g id="matplotlib.axis_1">
    <g id="xtick_1">
     <g id="line2d_1">
      <defs>
       <path id="m0fc0ff1853" d="M 0 0 
L 0 15 
" style="stroke: #000000; stroke-width: 3"/>
      </defs>
      <g>
       <use xlink:href="#m0fc0ff1853" x="245.893966" y="690.374531" style="stroke: #000000; stroke-width: 3"/>
      </g>
     </g>
     <g id="text_1">
      <!-- $|00\rangle$ -->
      <g transform="translate(195.893966 747.374531) scale(0.5 -0.5)">
       <defs>
        <path id="DejaVuSans-7c" d="M 1344 4891 
L 1344 -1509 
L 813 -1509 
L 813 4891 
L 1344 4891 
z
" transform="scale(0.015625)"/>
        <path id="DejaVuSans-30" d="M 2034 4250 
Q 1547 4250 1301 3770 
Q 1056 3291 1056 2328 
Q 1056 1369 1301 889 
Q 1547 409 2034 409 
Q 2525 409 2770 889 
Q 3016 1369 3016 2328 
Q 3016 3291 2770 3770 
Q 2525 4250 2034 4250 
z
M 2034 4750 
Q 2819 4750 3233 4129 
Q 3647 3509 3647 2328 
Q 3647 1150 3233 529 
Q 2819 -91 2034 -91 
Q 1250 -91 836 529 
Q 422 1150 422 2328 
Q 422 3509 836 4129 
Q 1250 4750 2034 4750 
z
" transform="scale(0.015625)"/>
        <path id="DejaVuSans-27e9" d="M 1925 2006 
L 1044 -844 
L 513 -844 
L 1394 2006 
L 513 4856 
L 1044 4856 
L 1925 2006 
z
" transform="scale(0.015625)"/>
       </defs>
       <use xlink:href="#DejaVuSans-7c" transform="translate(0 0.578125)"/>
       <use xlink:href="#DejaVuSans-30" transform="translate(33.691406 0.578125)"/>
       <use xlink:href="#DejaVuSans-30" transform="translate(97.314453 0.578125)"/>
       <use xlink:href="#DejaVuSans-27e9" transform="translate(160.9375 0.578125)"/>
      </g>
     </g>
    </g>
    <g id="xtick_2">
     <g id="line2d_2">
      <g>
       <use xlink:href="#m0fc0ff1853" x="388.380881" y="690.374531" style="stroke: #000000; stroke-width: 3"/>
      </g>
     </g>
     <g id="text_2">
      <!-- $|01\rangle$ -->
      <g transform="translate(338.380881 747.374531) scale(0.5 -0.5)">
       <defs>
        <path id="DejaVuSans-31" d="M 794 531 
L 1825 531 
L 1825 4091 
L 703 3866 
L 703 4441 
L 1819 4666 
L 2450 4666 
L 2450 531 
L 3481 531 
L 3481 0 
L 794 0 
L 794 531 
z
" transform="scale(0.015625)"/>
       </defs>
       <use xlink:href="#DejaVuSans-7c" transform="translate(0 0.578125)"/>
       <use xlink:href="#DejaVuSans-30" transform="translate(33.691406 0.578125)"/>
       <use xlink:href="#DejaVuSans-31" transform="translate(97.314453 0.578125)"/>
       <use xlink:href="#DejaVuSans-27e9" transform="translate(160.9375 0.578125)"/>
      </g>
     </g>
    </g>
    <g id="xtick_3">
     <g id="line2d_3">
      <g>
       <use xlink:href="#m0fc0ff1853" x="530.867796" y="690.374531" style="stroke: #000000; stroke-width: 3"/>
      </g>
     </g>
     <g id="text_3">
      <!-- $|10\rangle$ -->
      <g transform="translate(480.867796 747.374531) scale(0.5 -0.5)">
       <use xlink:href="#DejaVuSans-7c" transform="translate(0 0.578125)"/>
       <use xlink:href="#DejaVuSans-31" transform="translate(33.691406 0.578125)"/>
       <use xlink:href="#DejaVuSans-30" transform="translate(97.314453 0.578125)"/>
       <use xlink:href="#DejaVuSans-27e9" transform="translate(160.9375 0.578125)"/>
      </g>
     </g>
    </g>
    <g id="xtick_4">
     <g id="line2d_4">
      <g>
       <use xlink:href="#m0fc0ff1853" x="673.354711" y="690.374531" style="stroke: #000000; stroke-width: 3"/>
      </g>
     </g>
     <g id="text_4">
      <!-- $|11\rangle$ -->
      <g transform="translate(623.354711 747.374531) scale(0.5 -0.5)">
       <use xlink:href="#DejaVuSans-7c" transform="translate(0 0.578125)"/>
       <use xlink:href="#DejaVuSans-31" transform="translate(33.691406 0.578125)"/>
       <use xlink:href="#DejaVuSans-31" transform="translate(97.314453 0.578125)"/>
       <use xlink:href="#DejaVuSans-27e9" transform="translate(160.9375 0.578125)"/>
      </g>
     </g>
    </g>
    <g id="xtick_5">
     <g id="line2d_5">
      <g>
       <use xlink:href="#m0fc0ff1853" x="815.841626" y="690.374531" style="stroke: #000000; stroke-width: 3"/>
      </g>
     </g>
     <g id="text_5">
      <!-- $|0+\rangle$ -->
      <g transform="translate(750.841626 747.374531) scale(0.5 -0.5)">
       <defs>
        <path id="DejaVuSans-2b" d="M 2944 4013 
L 2944 2272 
L 4684 2272 
L 4684 1741 
L 2944 1741 
L 2944 0 
L 2419 0 
L 2419 1741 
L 678 1741 
L 678 2272 
L 2419 2272 
L 2419 4013 
L 2944 4013 
z
" transform="scale(0.015625)"/>
       </defs>
       <use xlink:href="#DejaVuSans-7c" transform="translate(0 0.578125)"/>
       <use xlink:href="#DejaVuSans-30" transform="translate(33.691406 0.578125)"/>
       <use xlink:href="#DejaVuSans-2b" transform="translate(116.796875 0.578125)"/>
       <use xlink:href="#DejaVuSans-27e9" transform="translate(220.068359 0.578125)"/>
      </g>
     </g>
    </g>
    <g id="xtick_6">
     <g id="line2d_6">
      <g>
       <use xlink:href="#m0fc0ff1853" x="958.328541" y="690.374531" style="stroke: #000000; stroke-width: 3"/>
      </g>
     </g>
     <g id="text_6">
      <!-- $|1+\rangle$ -->
      <g transform="translate(893.328541 747.374531) scale(0.5 -0.5)">
       <use xlink:href="#DejaVuSans-7c" transform="translate(0 0.578125)"/>
       <use xlink:href="#DejaVuSans-31" transform="translate(33.691406 0.578125)"/>
       <use xlink:href="#DejaVuSans-2b" transform="translate(116.796875 0.578125)"/>
       <use xlink:href="#DejaVuSans-27e9" transform="translate(220.068359 0.578125)"/>
      </g>
     </g>
    </g>
    <g id="xtick_7">
     <g id="line2d_7">
      <g>
       <use xlink:href="#m0fc0ff1853" x="1100.815456" y="690.374531" style="stroke: #000000; stroke-width: 3"/>
      </g>
     </g>
     <g id="text_7">
      <!-- $|+0\rangle$ -->
      <g transform="translate(1035.815456 747.374531) scale(0.5 -0.5)">
       <use xlink:href="#DejaVuSans-7c" transform="translate(0 0.578125)"/>
       <use xlink:href="#DejaVuSans-2b" transform="translate(53.173828 0.578125)"/>
       <use xlink:href="#DejaVuSans-30" transform="translate(156.445312 0.578125)"/>
       <use xlink:href="#DejaVuSans-27e9" transform="translate(220.068359 0.578125)"/>
      </g>
     </g>
    </g>
    <g id="xtick_8">
     <g id="line2d_8">
      <g>
       <use xlink:href="#m0fc0ff1853" x="1243.302372" y="690.374531" style="stroke: #000000; stroke-width: 3"/>
      </g>
     </g>
     <g id="text_8">
      <!-- $|+1\rangle$ -->
      <g transform="translate(1178.302372 747.374531) scale(0.5 -0.5)">
       <use xlink:href="#DejaVuSans-7c" transform="translate(0 0.578125)"/>
       <use xlink:href="#DejaVuSans-2b" transform="translate(53.173828 0.578125)"/>
       <use xlink:href="#DejaVuSans-31" transform="translate(156.445312 0.578125)"/>
       <use xlink:href="#DejaVuSans-27e9" transform="translate(220.068359 0.578125)"/>
      </g>
     </g>
    </g>
    <g id="xtick_9">
     <g id="line2d_9">
      <g>
       <use xlink:href="#m0fc0ff1853" x="1385.789287" y="690.374531" style="stroke: #000000; stroke-width: 3"/>
      </g>
     </g>
     <g id="text_9">
      <!-- $|++\rangle$ -->
      <g transform="translate(1306.039287 747.374531) scale(0.5 -0.5)">
       <use xlink:href="#DejaVuSans-7c" transform="translate(0 0.578125)"/>
       <use xlink:href="#DejaVuSans-2b" transform="translate(53.173828 0.578125)"/>
       <use xlink:href="#DejaVuSans-2b" transform="translate(175.927734 0.578125)"/>
       <use xlink:href="#DejaVuSans-27e9" transform="translate(279.199219 0.578125)"/>
      </g>
     </g>
    </g>
    <g id="text_10">
     <!-- Address -->
     <g transform="translate(745.507632 799.163594) scale(0.5 -0.5)">
      <defs>
       <path id="ArialMT-41" d="M -9 0 
L 1750 4581 
L 2403 4581 
L 4278 0 
L 3588 0 
L 3053 1388 
L 1138 1388 
L 634 0 
L -9 0 
z
M 1313 1881 
L 2866 1881 
L 2388 3150 
Q 2169 3728 2063 4100 
Q 1975 3659 1816 3225 
L 1313 1881 
z
" transform="scale(0.015625)"/>
       <path id="ArialMT-64" d="M 2575 0 
L 2575 419 
Q 2259 -75 1647 -75 
Q 1250 -75 917 144 
Q 584 363 401 755 
Q 219 1147 219 1656 
Q 219 2153 384 2558 
Q 550 2963 881 3178 
Q 1213 3394 1622 3394 
Q 1922 3394 2156 3267 
Q 2391 3141 2538 2938 
L 2538 4581 
L 3097 4581 
L 3097 0 
L 2575 0 
z
M 797 1656 
Q 797 1019 1065 703 
Q 1334 388 1700 388 
Q 2069 388 2326 689 
Q 2584 991 2584 1609 
Q 2584 2291 2321 2609 
Q 2059 2928 1675 2928 
Q 1300 2928 1048 2622 
Q 797 2316 797 1656 
z
" transform="scale(0.015625)"/>
       <path id="ArialMT-72" d="M 416 0 
L 416 3319 
L 922 3319 
L 922 2816 
Q 1116 3169 1280 3281 
Q 1444 3394 1641 3394 
Q 1925 3394 2219 3213 
L 2025 2691 
Q 1819 2813 1613 2813 
Q 1428 2813 1281 2702 
Q 1134 2591 1072 2394 
Q 978 2094 978 1738 
L 978 0 
L 416 0 
z
" transform="scale(0.015625)"/>
       <path id="ArialMT-65" d="M 2694 1069 
L 3275 997 
Q 3138 488 2766 206 
Q 2394 -75 1816 -75 
Q 1088 -75 661 373 
Q 234 822 234 1631 
Q 234 2469 665 2931 
Q 1097 3394 1784 3394 
Q 2450 3394 2872 2941 
Q 3294 2488 3294 1666 
Q 3294 1616 3291 1516 
L 816 1516 
Q 847 969 1125 678 
Q 1403 388 1819 388 
Q 2128 388 2347 550 
Q 2566 713 2694 1069 
z
M 847 1978 
L 2700 1978 
Q 2663 2397 2488 2606 
Q 2219 2931 1791 2931 
Q 1403 2931 1139 2672 
Q 875 2413 847 1978 
z
" transform="scale(0.015625)"/>
       <path id="ArialMT-73" d="M 197 991 
L 753 1078 
Q 800 744 1014 566 
Q 1228 388 1613 388 
Q 2000 388 2187 545 
Q 2375 703 2375 916 
Q 2375 1106 2209 1216 
Q 2094 1291 1634 1406 
Q 1016 1563 777 1677 
Q 538 1791 414 1992 
Q 291 2194 291 2438 
Q 291 2659 392 2848 
Q 494 3038 669 3163 
Q 800 3259 1026 3326 
Q 1253 3394 1513 3394 
Q 1903 3394 2198 3281 
Q 2494 3169 2634 2976 
Q 2775 2784 2828 2463 
L 2278 2388 
Q 2241 2644 2061 2787 
Q 1881 2931 1553 2931 
Q 1166 2931 1000 2803 
Q 834 2675 834 2503 
Q 834 2394 903 2306 
Q 972 2216 1119 2156 
Q 1203 2125 1616 2013 
Q 2213 1853 2448 1751 
Q 2684 1650 2818 1456 
Q 2953 1263 2953 975 
Q 2953 694 2789 445 
Q 2625 197 2315 61 
Q 2006 -75 1616 -75 
Q 969 -75 630 194 
Q 291 463 197 991 
z
" transform="scale(0.015625)"/>
      </defs>
      <use xlink:href="#ArialMT-41"/>
      <use xlink:href="#ArialMT-64" x="66.699219"/>
      <use xlink:href="#ArialMT-64" x="122.314453"/>
      <use xlink:href="#ArialMT-72" x="177.929688"/>
      <use xlink:href="#ArialMT-65" x="211.230469"/>
      <use xlink:href="#ArialMT-73" x="266.845703"/>
      <use xlink:href="#ArialMT-73" x="316.845703"/>
     </g>
    </g>
   </g>
   <g id="matplotlib.axis_2">
    <g id="ytick_1">
     <g id="line2d_10">
      <defs>
       <path id="m1fdb6e1203" d="M 0 0 
L -15 0 
" style="stroke: #000000; stroke-width: 3"/>
      </defs>
      <g>
       <use xlink:href="#m1fdb6e1203" x="146.153125" y="690.374531" style="stroke: #000000; stroke-width: 3"/>
      </g>
     </g>
     <g id="text_11">
      <!-- 0.5 -->
      <g transform="translate(58.153125 708.269063) scale(0.5 -0.5)">
       <defs>
        <path id="ArialMT-30" d="M 266 2259 
Q 266 3072 433 3567 
Q 600 4063 929 4331 
Q 1259 4600 1759 4600 
Q 2128 4600 2406 4451 
Q 2684 4303 2865 4023 
Q 3047 3744 3150 3342 
Q 3253 2941 3253 2259 
Q 3253 1453 3087 958 
Q 2922 463 2592 192 
Q 2263 -78 1759 -78 
Q 1097 -78 719 397 
Q 266 969 266 2259 
z
M 844 2259 
Q 844 1131 1108 757 
Q 1372 384 1759 384 
Q 2147 384 2411 759 
Q 2675 1134 2675 2259 
Q 2675 3391 2411 3762 
Q 2147 4134 1753 4134 
Q 1366 4134 1134 3806 
Q 844 3388 844 2259 
z
" transform="scale(0.015625)"/>
        <path id="ArialMT-2e" d="M 581 0 
L 581 641 
L 1222 641 
L 1222 0 
L 581 0 
z
" transform="scale(0.015625)"/>
        <path id="ArialMT-35" d="M 266 1200 
L 856 1250 
Q 922 819 1161 601 
Q 1400 384 1738 384 
Q 2144 384 2425 690 
Q 2706 997 2706 1503 
Q 2706 1984 2436 2262 
Q 2166 2541 1728 2541 
Q 1456 2541 1237 2417 
Q 1019 2294 894 2097 
L 366 2166 
L 809 4519 
L 3088 4519 
L 3088 3981 
L 1259 3981 
L 1013 2750 
Q 1425 3038 1878 3038 
Q 2478 3038 2890 2622 
Q 3303 2206 3303 1553 
Q 3303 931 2941 478 
Q 2500 -78 1738 -78 
Q 1113 -78 717 272 
Q 322 622 266 1200 
z
" transform="scale(0.015625)"/>
       </defs>
       <use xlink:href="#ArialMT-30"/>
       <use xlink:href="#ArialMT-2e" x="55.615234"/>
       <use xlink:href="#ArialMT-35" x="83.398438"/>
      </g>
     </g>
    </g>
    <g id="ytick_2">
     <g id="line2d_11">
      <g>
       <use xlink:href="#m1fdb6e1203" x="146.153125" y="524.054531" style="stroke: #000000; stroke-width: 3"/>
      </g>
     </g>
     <g id="text_12">
      <!-- 0.6 -->
      <g transform="translate(58.153125 541.949062) scale(0.5 -0.5)">
       <defs>
        <path id="ArialMT-36" d="M 3184 3459 
L 2625 3416 
Q 2550 3747 2413 3897 
Q 2184 4138 1850 4138 
Q 1581 4138 1378 3988 
Q 1113 3794 959 3422 
Q 806 3050 800 2363 
Q 1003 2672 1297 2822 
Q 1591 2972 1913 2972 
Q 2475 2972 2870 2558 
Q 3266 2144 3266 1488 
Q 3266 1056 3080 686 
Q 2894 316 2569 119 
Q 2244 -78 1831 -78 
Q 1128 -78 684 439 
Q 241 956 241 2144 
Q 241 3472 731 4075 
Q 1159 4600 1884 4600 
Q 2425 4600 2770 4297 
Q 3116 3994 3184 3459 
z
M 888 1484 
Q 888 1194 1011 928 
Q 1134 663 1356 523 
Q 1578 384 1822 384 
Q 2178 384 2434 671 
Q 2691 959 2691 1453 
Q 2691 1928 2437 2201 
Q 2184 2475 1800 2475 
Q 1419 2475 1153 2201 
Q 888 1928 888 1484 
z
" transform="scale(0.015625)"/>
       </defs>
       <use xlink:href="#ArialMT-30"/>
       <use xlink:href="#ArialMT-2e" x="55.615234"/>
       <use xlink:href="#ArialMT-36" x="83.398438"/>
      </g>
     </g>
    </g>
    <g id="ytick_3">
     <g id="line2d_12">
      <g>
       <use xlink:href="#m1fdb6e1203" x="146.153125" y="357.734531" style="stroke: #000000; stroke-width: 3"/>
      </g>
     </g>
     <g id="text_13">
      <!-- 0.7 -->
      <g transform="translate(58.153125 375.629063) scale(0.5 -0.5)">
       <defs>
        <path id="ArialMT-37" d="M 303 3981 
L 303 4522 
L 3269 4522 
L 3269 4084 
Q 2831 3619 2401 2847 
Q 1972 2075 1738 1259 
Q 1569 684 1522 0 
L 944 0 
Q 953 541 1156 1306 
Q 1359 2072 1739 2783 
Q 2119 3494 2547 3981 
L 303 3981 
z
" transform="scale(0.015625)"/>
       </defs>
       <use xlink:href="#ArialMT-30"/>
       <use xlink:href="#ArialMT-2e" x="55.615234"/>
       <use xlink:href="#ArialMT-37" x="83.398438"/>
      </g>
     </g>
    </g>
    <g id="ytick_4">
     <g id="line2d_13">
      <g>
       <use xlink:href="#m1fdb6e1203" x="146.153125" y="191.414531" style="stroke: #000000; stroke-width: 3"/>
      </g>
     </g>
     <g id="text_14">
      <!-- 0.8 -->
      <g transform="translate(58.153125 209.309063) scale(0.5 -0.5)">
       <defs>
        <path id="ArialMT-38" d="M 1131 2484 
Q 781 2613 612 2850 
Q 444 3088 444 3419 
Q 444 3919 803 4259 
Q 1163 4600 1759 4600 
Q 2359 4600 2725 4251 
Q 3091 3903 3091 3403 
Q 3091 3084 2923 2848 
Q 2756 2613 2416 2484 
Q 2838 2347 3058 2040 
Q 3278 1734 3278 1309 
Q 3278 722 2862 322 
Q 2447 -78 1769 -78 
Q 1091 -78 675 323 
Q 259 725 259 1325 
Q 259 1772 486 2073 
Q 713 2375 1131 2484 
z
M 1019 3438 
Q 1019 3113 1228 2906 
Q 1438 2700 1772 2700 
Q 2097 2700 2305 2904 
Q 2513 3109 2513 3406 
Q 2513 3716 2298 3927 
Q 2084 4138 1766 4138 
Q 1444 4138 1231 3931 
Q 1019 3725 1019 3438 
z
M 838 1322 
Q 838 1081 952 856 
Q 1066 631 1291 507 
Q 1516 384 1775 384 
Q 2178 384 2440 643 
Q 2703 903 2703 1303 
Q 2703 1709 2433 1975 
Q 2163 2241 1756 2241 
Q 1359 2241 1098 1978 
Q 838 1716 838 1322 
z
" transform="scale(0.015625)"/>
       </defs>
       <use xlink:href="#ArialMT-30"/>
       <use xlink:href="#ArialMT-2e" x="55.615234"/>
       <use xlink:href="#ArialMT-38" x="83.398438"/>
      </g>
     </g>
    </g>
    <g id="ytick_5">
     <g id="line2d_14">
      <g>
       <use xlink:href="#m1fdb6e1203" x="146.153125" y="25.094531" style="stroke: #000000; stroke-width: 3"/>
      </g>
     </g>
     <g id="text_15">
      <!-- 0.9 -->
      <g transform="translate(58.153125 42.989063) scale(0.5 -0.5)">
       <defs>
        <path id="ArialMT-39" d="M 350 1059 
L 891 1109 
Q 959 728 1153 556 
Q 1347 384 1650 384 
Q 1909 384 2104 503 
Q 2300 622 2425 820 
Q 2550 1019 2634 1356 
Q 2719 1694 2719 2044 
Q 2719 2081 2716 2156 
Q 2547 1888 2255 1720 
Q 1963 1553 1622 1553 
Q 1053 1553 659 1965 
Q 266 2378 266 3053 
Q 266 3750 677 4175 
Q 1088 4600 1706 4600 
Q 2153 4600 2523 4359 
Q 2894 4119 3086 3673 
Q 3278 3228 3278 2384 
Q 3278 1506 3087 986 
Q 2897 466 2520 194 
Q 2144 -78 1638 -78 
Q 1100 -78 759 220 
Q 419 519 350 1059 
z
M 2653 3081 
Q 2653 3566 2395 3850 
Q 2138 4134 1775 4134 
Q 1400 4134 1122 3828 
Q 844 3522 844 3034 
Q 844 2597 1108 2323 
Q 1372 2050 1759 2050 
Q 2150 2050 2401 2323 
Q 2653 2597 2653 3081 
z
" transform="scale(0.015625)"/>
       </defs>
       <use xlink:href="#ArialMT-30"/>
       <use xlink:href="#ArialMT-2e" x="55.615234"/>
       <use xlink:href="#ArialMT-39" x="83.398438"/>
      </g>
     </g>
    </g>
    <g id="ytick_6">
     <g id="line2d_15">
      <defs>
       <path id="me04447ed14" d="M 0 0 
L -10 0 
" style="stroke: #000000; stroke-width: 2"/>
      </defs>
      <g>
       <use xlink:href="#me04447ed14" x="146.153125" y="657.110531" style="stroke: #000000; stroke-width: 2"/>
      </g>
     </g>
    </g>
    <g id="ytick_7">
     <g id="line2d_16">
      <g>
       <use xlink:href="#me04447ed14" x="146.153125" y="623.846531" style="stroke: #000000; stroke-width: 2"/>
      </g>
     </g>
    </g>
    <g id="ytick_8">
     <g id="line2d_17">
      <g>
       <use xlink:href="#me04447ed14" x="146.153125" y="590.582531" style="stroke: #000000; stroke-width: 2"/>
      </g>
     </g>
    </g>
    <g id="ytick_9">
     <g id="line2d_18">
      <g>
       <use xlink:href="#me04447ed14" x="146.153125" y="557.318531" style="stroke: #000000; stroke-width: 2"/>
      </g>
     </g>
    </g>
    <g id="ytick_10">
     <g id="line2d_19">
      <g>
       <use xlink:href="#me04447ed14" x="146.153125" y="490.790531" style="stroke: #000000; stroke-width: 2"/>
      </g>
     </g>
    </g>
    <g id="ytick_11">
     <g id="line2d_20">
      <g>
       <use xlink:href="#me04447ed14" x="146.153125" y="457.526531" style="stroke: #000000; stroke-width: 2"/>
      </g>
     </g>
    </g>
    <g id="ytick_12">
     <g id="line2d_21">
      <g>
       <use xlink:href="#me04447ed14" x="146.153125" y="424.262531" style="stroke: #000000; stroke-width: 2"/>
      </g>
     </g>
    </g>
    <g id="ytick_13">
     <g id="line2d_22">
      <g>
       <use xlink:href="#me04447ed14" x="146.153125" y="390.998531" style="stroke: #000000; stroke-width: 2"/>
      </g>
     </g>
    </g>
    <g id="ytick_14">
     <g id="line2d_23">
      <g>
       <use xlink:href="#me04447ed14" x="146.153125" y="324.470531" style="stroke: #000000; stroke-width: 2"/>
      </g>
     </g>
    </g>
    <g id="ytick_15">
     <g id="line2d_24">
      <g>
       <use xlink:href="#me04447ed14" x="146.153125" y="291.206531" style="stroke: #000000; stroke-width: 2"/>
      </g>
     </g>
    </g>
    <g id="ytick_16">
     <g id="line2d_25">
      <g>
       <use xlink:href="#me04447ed14" x="146.153125" y="257.942531" style="stroke: #000000; stroke-width: 2"/>
      </g>
     </g>
    </g>
    <g id="ytick_17">
     <g id="line2d_26">
      <g>
       <use xlink:href="#me04447ed14" x="146.153125" y="224.678531" style="stroke: #000000; stroke-width: 2"/>
      </g>
     </g>
    </g>
    <g id="ytick_18">
     <g id="line2d_27">
      <g>
       <use xlink:href="#me04447ed14" x="146.153125" y="158.150531" style="stroke: #000000; stroke-width: 2"/>
      </g>
     </g>
    </g>
    <g id="ytick_19">
     <g id="line2d_28">
      <g>
       <use xlink:href="#me04447ed14" x="146.153125" y="124.886531" style="stroke: #000000; stroke-width: 2"/>
      </g>
     </g>
    </g>
    <g id="ytick_20">
     <g id="line2d_29">
      <g>
       <use xlink:href="#me04447ed14" x="146.153125" y="91.622531" style="stroke: #000000; stroke-width: 2"/>
      </g>
     </g>
    </g>
    <g id="ytick_21">
     <g id="line2d_30">
      <g>
       <use xlink:href="#me04447ed14" x="146.153125" y="58.358531" style="stroke: #000000; stroke-width: 2"/>
      </g>
     </g>
    </g>
    <g id="text_16">
     <!-- Query fidelity -->
     <g transform="translate(43.629687 503.613438) rotate(-90) scale(0.5 -0.5)">
      <defs>
       <path id="ArialMT-51" d="M 3966 491 
Q 4388 200 4744 66 
L 4566 -356 
Q 4072 -178 3581 206 
Q 3072 -78 2456 -78 
Q 1834 -78 1328 222 
Q 822 522 548 1065 
Q 275 1609 275 2291 
Q 275 2969 550 3525 
Q 825 4081 1333 4372 
Q 1841 4663 2469 4663 
Q 3103 4663 3612 4361 
Q 4122 4059 4389 3517 
Q 4656 2975 4656 2294 
Q 4656 1728 4484 1276 
Q 4313 825 3966 491 
z
M 2631 1266 
Q 3156 1119 3497 828 
Q 4031 1316 4031 2294 
Q 4031 2850 3842 3265 
Q 3653 3681 3289 3911 
Q 2925 4141 2472 4141 
Q 1794 4141 1347 3677 
Q 900 3213 900 2291 
Q 900 1397 1342 919 
Q 1784 441 2472 441 
Q 2797 441 3084 563 
Q 2800 747 2484 825 
L 2631 1266 
z
" transform="scale(0.015625)"/>
       <path id="ArialMT-75" d="M 2597 0 
L 2597 488 
Q 2209 -75 1544 -75 
Q 1250 -75 995 37 
Q 741 150 617 320 
Q 494 491 444 738 
Q 409 903 409 1263 
L 409 3319 
L 972 3319 
L 972 1478 
Q 972 1038 1006 884 
Q 1059 663 1231 536 
Q 1403 409 1656 409 
Q 1909 409 2131 539 
Q 2353 669 2445 892 
Q 2538 1116 2538 1541 
L 2538 3319 
L 3100 3319 
L 3100 0 
L 2597 0 
z
" transform="scale(0.015625)"/>
       <path id="ArialMT-79" d="M 397 -1278 
L 334 -750 
Q 519 -800 656 -800 
Q 844 -800 956 -737 
Q 1069 -675 1141 -563 
Q 1194 -478 1313 -144 
Q 1328 -97 1363 -6 
L 103 3319 
L 709 3319 
L 1400 1397 
Q 1534 1031 1641 628 
Q 1738 1016 1872 1384 
L 2581 3319 
L 3144 3319 
L 1881 -56 
Q 1678 -603 1566 -809 
Q 1416 -1088 1222 -1217 
Q 1028 -1347 759 -1347 
Q 597 -1347 397 -1278 
z
" transform="scale(0.015625)"/>
       <path id="ArialMT-20" transform="scale(0.015625)"/>
       <path id="ArialMT-66" d="M 556 0 
L 556 2881 
L 59 2881 
L 59 3319 
L 556 3319 
L 556 3672 
Q 556 4006 616 4169 
Q 697 4388 901 4523 
Q 1106 4659 1475 4659 
Q 1713 4659 2000 4603 
L 1916 4113 
Q 1741 4144 1584 4144 
Q 1328 4144 1222 4034 
Q 1116 3925 1116 3625 
L 1116 3319 
L 1763 3319 
L 1763 2881 
L 1116 2881 
L 1116 0 
L 556 0 
z
" transform="scale(0.015625)"/>
       <path id="ArialMT-69" d="M 425 3934 
L 425 4581 
L 988 4581 
L 988 3934 
L 425 3934 
z
M 425 0 
L 425 3319 
L 988 3319 
L 988 0 
L 425 0 
z
" transform="scale(0.015625)"/>
       <path id="ArialMT-6c" d="M 409 0 
L 409 4581 
L 972 4581 
L 972 0 
L 409 0 
z
" transform="scale(0.015625)"/>
       <path id="ArialMT-74" d="M 1650 503 
L 1731 6 
Q 1494 -44 1306 -44 
Q 1000 -44 831 53 
Q 663 150 594 308 
Q 525 466 525 972 
L 525 2881 
L 113 2881 
L 113 3319 
L 525 3319 
L 525 4141 
L 1084 4478 
L 1084 3319 
L 1650 3319 
L 1650 2881 
L 1084 2881 
L 1084 941 
Q 1084 700 1114 631 
Q 1144 563 1211 522 
Q 1278 481 1403 481 
Q 1497 481 1650 503 
z
" transform="scale(0.015625)"/>
      </defs>
      <use xlink:href="#ArialMT-51"/>
      <use xlink:href="#ArialMT-75" x="77.783203"/>
      <use xlink:href="#ArialMT-65" x="133.398438"/>
      <use xlink:href="#ArialMT-72" x="189.013672"/>
      <use xlink:href="#ArialMT-79" x="222.314453"/>
      <use xlink:href="#ArialMT-20" x="272.314453"/>
      <use xlink:href="#ArialMT-66" x="300.097656"/>
      <use xlink:href="#ArialMT-69" x="327.880859"/>
      <use xlink:href="#ArialMT-64" x="350.097656"/>
      <use xlink:href="#ArialMT-65" x="405.712891"/>
      <use xlink:href="#ArialMT-6c" x="461.328125"/>
      <use xlink:href="#ArialMT-69" x="483.544922"/>
      <use xlink:href="#ArialMT-74" x="505.761719"/>
      <use xlink:href="#ArialMT-79" x="533.544922"/>
     </g>
    </g>
   </g>
   <g id="LineCollection_1">
    <path d="M 245.893966 378.866169 
L 245.893966 324.071641 
" clip-path="url(#pd3c2b055b0)" style="fill: none; stroke: #add8e6; stroke-width: 5"/>
   </g>
   <g id="line2d_31">
    <defs>
     <path id="mcf1b57644a" d="M 10 0 
L -10 -0 
" style="stroke: #add8e6; stroke-width: 5"/>
    </defs>
    <g clip-path="url(#pd3c2b055b0)">
     <use xlink:href="#mcf1b57644a" x="245.893966" y="378.866169" style="fill: #add8e6; stroke: #add8e6; stroke-width: 5"/>
    </g>
   </g>
   <g id="line2d_32">
    <g clip-path="url(#pd3c2b055b0)">
     <use xlink:href="#mcf1b57644a" x="245.893966" y="324.071641" style="fill: #add8e6; stroke: #add8e6; stroke-width: 5"/>
    </g>
   </g>
   <g id="LineCollection_2">
    <path d="M 288.64004 253.659222 
L 288.64004 194.530667 
" clip-path="url(#pd3c2b055b0)" style="fill: none; stroke: #e3625d; stroke-width: 5"/>
   </g>
   <g id="line2d_33">
    <defs>
     <path id="m18a6eb81b9" d="M 10 0 
L -10 -0 
" style="stroke: #e3625d; stroke-width: 5"/>
    </defs>
    <g clip-path="url(#pd3c2b055b0)">
     <use xlink:href="#m18a6eb81b9" x="288.64004" y="253.659222" style="fill: #e3625d; stroke: #e3625d; stroke-width: 5"/>
    </g>
   </g>
   <g id="line2d_34">
    <g clip-path="url(#pd3c2b055b0)">
     <use xlink:href="#m18a6eb81b9" x="288.64004" y="194.530667" style="fill: #e3625d; stroke: #e3625d; stroke-width: 5"/>
    </g>
   </g>
   <g id="LineCollection_3">
    <path d="M 388.380881 377.869604 
L 388.380881 316.241889 
" clip-path="url(#pd3c2b055b0)" style="fill: none; stroke: #add8e6; stroke-width: 5"/>
   </g>
   <g id="line2d_35">
    <g clip-path="url(#pd3c2b055b0)">
     <use xlink:href="#mcf1b57644a" x="388.380881" y="377.869604" style="fill: #add8e6; stroke: #add8e6; stroke-width: 5"/>
    </g>
   </g>
   <g id="line2d_36">
    <g clip-path="url(#pd3c2b055b0)">
     <use xlink:href="#mcf1b57644a" x="388.380881" y="316.241889" style="fill: #add8e6; stroke: #add8e6; stroke-width: 5"/>
    </g>
   </g>
   <g id="LineCollection_4">
    <path d="M 431.126955 226.641059 
L 431.126955 146.383813 
" clip-path="url(#pd3c2b055b0)" style="fill: none; stroke: #e3625d; stroke-width: 5"/>
   </g>
   <g id="line2d_37">
    <g clip-path="url(#pd3c2b055b0)">
     <use xlink:href="#m18a6eb81b9" x="431.126955" y="226.641059" style="fill: #e3625d; stroke: #e3625d; stroke-width: 5"/>
    </g>
   </g>
   <g id="line2d_38">
    <g clip-path="url(#pd3c2b055b0)">
     <use xlink:href="#m18a6eb81b9" x="431.126955" y="146.383813" style="fill: #e3625d; stroke: #e3625d; stroke-width: 5"/>
    </g>
   </g>
   <g id="LineCollection_5">
    <path d="M 530.867796 370.920047 
L 530.867796 338.217034 
" clip-path="url(#pd3c2b055b0)" style="fill: none; stroke: #add8e6; stroke-width: 5"/>
   </g>
   <g id="line2d_39">
    <g clip-path="url(#pd3c2b055b0)">
     <use xlink:href="#mcf1b57644a" x="530.867796" y="370.920047" style="fill: #add8e6; stroke: #add8e6; stroke-width: 5"/>
    </g>
   </g>
   <g id="line2d_40">
    <g clip-path="url(#pd3c2b055b0)">
     <use xlink:href="#mcf1b57644a" x="530.867796" y="338.217034" style="fill: #add8e6; stroke: #add8e6; stroke-width: 5"/>
    </g>
   </g>
   <g id="LineCollection_6">
    <path d="M 573.61387 233.017411 
L 573.61387 178.277285 
" clip-path="url(#pd3c2b055b0)" style="fill: none; stroke: #e3625d; stroke-width: 5"/>
   </g>
   <g id="line2d_41">
    <g clip-path="url(#pd3c2b055b0)">
     <use xlink:href="#m18a6eb81b9" x="573.61387" y="233.017411" style="fill: #e3625d; stroke: #e3625d; stroke-width: 5"/>
    </g>
   </g>
   <g id="line2d_42">
    <g clip-path="url(#pd3c2b055b0)">
     <use xlink:href="#m18a6eb81b9" x="573.61387" y="178.277285" style="fill: #e3625d; stroke: #e3625d; stroke-width: 5"/>
    </g>
   </g>
   <g id="LineCollection_7">
    <path d="M 673.354711 407.825767 
L 673.354711 350.658142 
" clip-path="url(#pd3c2b055b0)" style="fill: none; stroke: #add8e6; stroke-width: 5"/>
   </g>
   <g id="line2d_43">
    <g clip-path="url(#pd3c2b055b0)">
     <use xlink:href="#mcf1b57644a" x="673.354711" y="407.825767" style="fill: #add8e6; stroke: #add8e6; stroke-width: 5"/>
    </g>
   </g>
   <g id="line2d_44">
    <g clip-path="url(#pd3c2b055b0)">
     <use xlink:href="#mcf1b57644a" x="673.354711" y="350.658142" style="fill: #add8e6; stroke: #add8e6; stroke-width: 5"/>
    </g>
   </g>
   <g id="LineCollection_8">
    <path d="M 716.100786 180.119506 
L 716.100786 115.591441 
" clip-path="url(#pd3c2b055b0)" style="fill: none; stroke: #e3625d; stroke-width: 5"/>
   </g>
   <g id="line2d_45">
    <g clip-path="url(#pd3c2b055b0)">
     <use xlink:href="#m18a6eb81b9" x="716.100786" y="180.119506" style="fill: #e3625d; stroke: #e3625d; stroke-width: 5"/>
    </g>
   </g>
   <g id="line2d_46">
    <g clip-path="url(#pd3c2b055b0)">
     <use xlink:href="#m18a6eb81b9" x="716.100786" y="115.591441" style="fill: #e3625d; stroke: #e3625d; stroke-width: 5"/>
    </g>
   </g>
   <g id="LineCollection_9">
    <path d="M 815.841626 447.190103 
L 815.841626 380.453606 
" clip-path="url(#pd3c2b055b0)" style="fill: none; stroke: #add8e6; stroke-width: 5"/>
   </g>
   <g id="line2d_47">
    <g clip-path="url(#pd3c2b055b0)">
     <use xlink:href="#mcf1b57644a" x="815.841626" y="447.190103" style="fill: #add8e6; stroke: #add8e6; stroke-width: 5"/>
    </g>
   </g>
   <g id="line2d_48">
    <g clip-path="url(#pd3c2b055b0)">
     <use xlink:href="#mcf1b57644a" x="815.841626" y="380.453606" style="fill: #add8e6; stroke: #add8e6; stroke-width: 5"/>
    </g>
   </g>
   <g id="LineCollection_10">
    <path d="M 858.587701 211.614886 
L 858.587701 150.28235 
" clip-path="url(#pd3c2b055b0)" style="fill: none; stroke: #e3625d; stroke-width: 5"/>
   </g>
   <g id="line2d_49">
    <g clip-path="url(#pd3c2b055b0)">
     <use xlink:href="#m18a6eb81b9" x="858.587701" y="211.614886" style="fill: #e3625d; stroke: #e3625d; stroke-width: 5"/>
    </g>
   </g>
   <g id="line2d_50">
    <g clip-path="url(#pd3c2b055b0)">
     <use xlink:href="#m18a6eb81b9" x="858.587701" y="150.28235" style="fill: #e3625d; stroke: #e3625d; stroke-width: 5"/>
    </g>
   </g>
   <g id="LineCollection_11">
    <path d="M 958.328541 474.853502 
L 958.328541 399.481114 
" clip-path="url(#pd3c2b055b0)" style="fill: none; stroke: #add8e6; stroke-width: 5"/>
   </g>
   <g id="line2d_51">
    <g clip-path="url(#pd3c2b055b0)">
     <use xlink:href="#mcf1b57644a" x="958.328541" y="474.853502" style="fill: #add8e6; stroke: #add8e6; stroke-width: 5"/>
    </g>
   </g>
   <g id="line2d_52">
    <g clip-path="url(#pd3c2b055b0)">
     <use xlink:href="#mcf1b57644a" x="958.328541" y="399.481114" style="fill: #add8e6; stroke: #add8e6; stroke-width: 5"/>
    </g>
   </g>
   <g id="LineCollection_12">
    <path d="M 1001.074616 234.585077 
L 1001.074616 151.111999 
" clip-path="url(#pd3c2b055b0)" style="fill: none; stroke: #e3625d; stroke-width: 5"/>
   </g>
   <g id="line2d_53">
    <g clip-path="url(#pd3c2b055b0)">
     <use xlink:href="#m18a6eb81b9" x="1001.074616" y="234.585077" style="fill: #e3625d; stroke: #e3625d; stroke-width: 5"/>
    </g>
   </g>
   <g id="line2d_54">
    <g clip-path="url(#pd3c2b055b0)">
     <use xlink:href="#m18a6eb81b9" x="1001.074616" y="151.111999" style="fill: #e3625d; stroke: #e3625d; stroke-width: 5"/>
    </g>
   </g>
   <g id="LineCollection_13">
    <path d="M 1100.815456 495.317968 
L 1100.815456 393.023042 
" clip-path="url(#pd3c2b055b0)" style="fill: none; stroke: #add8e6; stroke-width: 5"/>
   </g>
   <g id="line2d_55">
    <g clip-path="url(#pd3c2b055b0)">
     <use xlink:href="#mcf1b57644a" x="1100.815456" y="495.317968" style="fill: #add8e6; stroke: #add8e6; stroke-width: 5"/>
    </g>
   </g>
   <g id="line2d_56">
    <g clip-path="url(#pd3c2b055b0)">
     <use xlink:href="#mcf1b57644a" x="1100.815456" y="393.023042" style="fill: #add8e6; stroke: #add8e6; stroke-width: 5"/>
    </g>
   </g>
   <g id="LineCollection_14">
    <path d="M 1143.561531 280.475274 
L 1143.561531 209.420882 
" clip-path="url(#pd3c2b055b0)" style="fill: none; stroke: #e3625d; stroke-width: 5"/>
   </g>
   <g id="line2d_57">
    <g clip-path="url(#pd3c2b055b0)">
     <use xlink:href="#m18a6eb81b9" x="1143.561531" y="280.475274" style="fill: #e3625d; stroke: #e3625d; stroke-width: 5"/>
    </g>
   </g>
   <g id="line2d_58">
    <g clip-path="url(#pd3c2b055b0)">
     <use xlink:href="#m18a6eb81b9" x="1143.561531" y="209.420882" style="fill: #e3625d; stroke: #e3625d; stroke-width: 5"/>
    </g>
   </g>
   <g id="LineCollection_15">
    <path d="M 1243.302372 535.092154 
L 1243.302372 462.541186 
" clip-path="url(#pd3c2b055b0)" style="fill: none; stroke: #add8e6; stroke-width: 5"/>
   </g>
   <g id="line2d_59">
    <g clip-path="url(#pd3c2b055b0)">
     <use xlink:href="#mcf1b57644a" x="1243.302372" y="535.092154" style="fill: #add8e6; stroke: #add8e6; stroke-width: 5"/>
    </g>
   </g>
   <g id="line2d_60">
    <g clip-path="url(#pd3c2b055b0)">
     <use xlink:href="#mcf1b57644a" x="1243.302372" y="462.541186" style="fill: #add8e6; stroke: #add8e6; stroke-width: 5"/>
    </g>
   </g>
   <g id="LineCollection_16">
    <path d="M 1286.048446 286.070604 
L 1286.048446 206.062883 
" clip-path="url(#pd3c2b055b0)" style="fill: none; stroke: #e3625d; stroke-width: 5"/>
   </g>
   <g id="line2d_61">
    <g clip-path="url(#pd3c2b055b0)">
     <use xlink:href="#m18a6eb81b9" x="1286.048446" y="286.070604" style="fill: #e3625d; stroke: #e3625d; stroke-width: 5"/>
    </g>
   </g>
   <g id="line2d_62">
    <g clip-path="url(#pd3c2b055b0)">
     <use xlink:href="#m18a6eb81b9" x="1286.048446" y="206.062883" style="fill: #e3625d; stroke: #e3625d; stroke-width: 5"/>
    </g>
   </g>
   <g id="LineCollection_17">
    <path d="M 1385.789287 563.568165 
L 1385.789287 500.580719 
" clip-path="url(#pd3c2b055b0)" style="fill: none; stroke: #add8e6; stroke-width: 5"/>
   </g>
   <g id="line2d_63">
    <g clip-path="url(#pd3c2b055b0)">
     <use xlink:href="#mcf1b57644a" x="1385.789287" y="563.568165" style="fill: #add8e6; stroke: #add8e6; stroke-width: 5"/>
    </g>
   </g>
   <g id="line2d_64">
    <g clip-path="url(#pd3c2b055b0)">
     <use xlink:href="#mcf1b57644a" x="1385.789287" y="500.580719" style="fill: #add8e6; stroke: #add8e6; stroke-width: 5"/>
    </g>
   </g>
   <g id="LineCollection_18">
    <path d="M 1428.535361 302.939897 
L 1428.535361 245.425123 
" clip-path="url(#pd3c2b055b0)" style="fill: none; stroke: #e3625d; stroke-width: 5"/>
   </g>
   <g id="line2d_65">
    <g clip-path="url(#pd3c2b055b0)">
     <use xlink:href="#m18a6eb81b9" x="1428.535361" y="302.939897" style="fill: #e3625d; stroke: #e3625d; stroke-width: 5"/>
    </g>
   </g>
   <g id="line2d_66">
    <g clip-path="url(#pd3c2b055b0)">
     <use xlink:href="#m18a6eb81b9" x="1428.535361" y="245.425123" style="fill: #e3625d; stroke: #e3625d; stroke-width: 5"/>
    </g>
   </g>
   <g id="line2d_67">
    <defs>
     <path id="mea547a554c" d="M 0 10 
C 2.652031 10 5.195799 8.946337 7.071068 7.071068 
C 8.946337 5.195799 10 2.652031 10 0 
C 10 -2.652031 8.946337 -5.195799 7.071068 -7.071068 
C 5.195799 -8.946337 2.652031 -10 0 -10 
C -2.652031 -10 -5.195799 -8.946337 -7.071068 -7.071068 
C -8.946337 -5.195799 -10 -2.652031 -10 0 
C -10 2.652031 -8.946337 5.195799 -7.071068 7.071068 
C -5.195799 8.946337 -2.652031 10 0 10 
z
" style="stroke: #add8e6; stroke-width: 5"/>
    </defs>
    <g clip-path="url(#pd3c2b055b0)">
     <use xlink:href="#mea547a554c" x="245.893966" y="351.468905" style="fill: #ffffff; stroke: #add8e6; stroke-width: 5"/>
    </g>
   </g>
   <g id="line2d_68">
    <defs>
     <path id="mc7011a8c03" d="M 0 10 
C 2.652031 10 5.195799 8.946337 7.071068 7.071068 
C 8.946337 5.195799 10 2.652031 10 0 
C 10 -2.652031 8.946337 -5.195799 7.071068 -7.071068 
C 5.195799 -8.946337 2.652031 -10 0 -10 
C -2.652031 -10 -5.195799 -8.946337 -7.071068 -7.071068 
C -8.946337 -5.195799 -10 -2.652031 -10 0 
C -10 2.652031 -8.946337 5.195799 -7.071068 7.071068 
C -5.195799 8.946337 -2.652031 10 0 10 
z
" style="stroke: #e3625d; stroke-width: 5"/>
    </defs>
    <g clip-path="url(#pd3c2b055b0)">
     <use xlink:href="#mc7011a8c03" x="288.64004" y="224.094945" style="fill: #ffffff; stroke: #e3625d; stroke-width: 5"/>
    </g>
   </g>
   <g id="line2d_69">
    <g clip-path="url(#pd3c2b055b0)">
     <use xlink:href="#mea547a554c" x="388.380881" y="347.055746" style="fill: #ffffff; stroke: #add8e6; stroke-width: 5"/>
    </g>
   </g>
   <g id="line2d_70">
    <g clip-path="url(#pd3c2b055b0)">
     <use xlink:href="#mc7011a8c03" x="431.126955" y="186.512436" style="fill: #ffffff; stroke: #e3625d; stroke-width: 5"/>
    </g>
   </g>
   <g id="line2d_71">
    <g clip-path="url(#pd3c2b055b0)">
     <use xlink:href="#mea547a554c" x="530.867796" y="354.56854" style="fill: #ffffff; stroke: #add8e6; stroke-width: 5"/>
    </g>
   </g>
   <g id="line2d_72">
    <g clip-path="url(#pd3c2b055b0)">
     <use xlink:href="#mc7011a8c03" x="573.61387" y="205.647348" style="fill: #ffffff; stroke: #e3625d; stroke-width: 5"/>
    </g>
   </g>
   <g id="line2d_73">
    <g clip-path="url(#pd3c2b055b0)">
     <use xlink:href="#mea547a554c" x="673.354711" y="379.241954" style="fill: #ffffff; stroke: #add8e6; stroke-width: 5"/>
    </g>
   </g>
   <g id="line2d_74">
    <g clip-path="url(#pd3c2b055b0)">
     <use xlink:href="#mc7011a8c03" x="716.100786" y="147.855473" style="fill: #ffffff; stroke: #e3625d; stroke-width: 5"/>
    </g>
   </g>
   <g id="line2d_75">
    <g clip-path="url(#pd3c2b055b0)">
     <use xlink:href="#mea547a554c" x="815.841626" y="413.821855" style="fill: #ffffff; stroke: #add8e6; stroke-width: 5"/>
    </g>
   </g>
   <g id="line2d_76">
    <g clip-path="url(#pd3c2b055b0)">
     <use xlink:href="#mc7011a8c03" x="858.587701" y="180.948618" style="fill: #ffffff; stroke: #e3625d; stroke-width: 5"/>
    </g>
   </g>
   <g id="line2d_77">
    <g clip-path="url(#pd3c2b055b0)">
     <use xlink:href="#mea547a554c" x="958.328541" y="437.167308" style="fill: #ffffff; stroke: #add8e6; stroke-width: 5"/>
    </g>
   </g>
   <g id="line2d_78">
    <g clip-path="url(#pd3c2b055b0)">
     <use xlink:href="#mc7011a8c03" x="1001.074616" y="192.848538" style="fill: #ffffff; stroke: #e3625d; stroke-width: 5"/>
    </g>
   </g>
   <g id="line2d_79">
    <g clip-path="url(#pd3c2b055b0)">
     <use xlink:href="#mea547a554c" x="1100.815456" y="444.170505" style="fill: #ffffff; stroke: #add8e6; stroke-width: 5"/>
    </g>
   </g>
   <g id="line2d_80">
    <g clip-path="url(#pd3c2b055b0)">
     <use xlink:href="#mc7011a8c03" x="1143.561531" y="244.948078" style="fill: #ffffff; stroke: #e3625d; stroke-width: 5"/>
    </g>
   </g>
   <g id="line2d_81">
    <g clip-path="url(#pd3c2b055b0)">
     <use xlink:href="#mea547a554c" x="1243.302372" y="498.81667" style="fill: #ffffff; stroke: #add8e6; stroke-width: 5"/>
    </g>
   </g>
   <g id="line2d_82">
    <g clip-path="url(#pd3c2b055b0)">
     <use xlink:href="#mc7011a8c03" x="1286.048446" y="246.066744" style="fill: #ffffff; stroke: #e3625d; stroke-width: 5"/>
    </g>
   </g>
   <g id="line2d_83">
    <g clip-path="url(#pd3c2b055b0)">
     <use xlink:href="#mea547a554c" x="1385.789287" y="532.074442" style="fill: #ffffff; stroke: #add8e6; stroke-width: 5"/>
    </g>
   </g>
   <g id="line2d_84">
    <g clip-path="url(#pd3c2b055b0)">
     <use xlink:href="#mc7011a8c03" x="1428.535361" y="274.18251" style="fill: #ffffff; stroke: #e3625d; stroke-width: 5"/>
    </g>
   </g>
   <g id="patch_3">
    <path d="M 146.153125 690.374531 
L 146.153125 25.094531 
" style="fill: none; stroke: #000000; stroke-width: 3; stroke-linejoin: miter; stroke-linecap: square"/>
   </g>
   <g id="patch_4">
    <path d="M 1528.276202 690.374531 
L 1528.276202 25.094531 
" style="fill: none; stroke: #000000; stroke-width: 3; stroke-linejoin: miter; stroke-linecap: square"/>
   </g>
   <g id="patch_5">
    <path d="M 146.153125 690.374531 
L 1528.276202 690.374531 
" style="fill: none; stroke: #000000; stroke-width: 3; stroke-linejoin: miter; stroke-linecap: square"/>
   </g>
   <g id="patch_6">
    <path d="M 146.153125 25.094531 
L 1528.276202 25.094531 
" style="fill: none; stroke: #000000; stroke-width: 3; stroke-linejoin: miter; stroke-linecap: square"/>
   </g>
  </g>
 </g>
 <defs>
  <clipPath id="pd3c2b055b0">
   <rect x="146.153125" y="25.094531" width="1382.123077" height="665.28"/>
  </clipPath>
 </defs>
</svg>
